<?xml version="1.0" encoding="utf-8"?>
<!-- Generator: Adobe Illustrator 19.0.0, SVG Export Plug-In . SVG Version: 6.00 Build 0)  -->
<svg version="1.1" id="图层_1" xmlns="http://www.w3.org/2000/svg" xmlns:xlink="http://www.w3.org/1999/xlink" x="0px" y="0px"
	 viewBox="0 0 300 300" style="enable-background:new 0 0 300 300;" xml:space="preserve">
<style type="text/css">
	.st0{fill:#E6E8E8;}
	.st1{fill:#FFFFFF;}
	.st2{fill:#5B6B75;}
	.st3{fill:#73E6E2;}
</style>
<g>
	<path id="XMLID_25_" class="st0" d="M36.8,249.1V67.4c0-5.4,4.4-9.8,9.8-9.8h184.1c5.4,0,9.8,4.4,9.8,9.8v181.6H36.8z"/>
	<path id="XMLID_24_" class="st1" d="M19.8,232V50.4c0-5.4,4.4-9.8,9.8-9.8h184.1c5.4,0,9.8,4.4,9.8,9.8V232H19.8z"/>
	<path class="st2" d="M223.5,234.3H19.8c-1.3,0-2.3-1-2.3-2.3V50.4c0-6.7,5.4-12.1,12.1-12.1h184.1c6.7,0,12.1,5.4,12.1,12.1V232
		C225.8,233.3,224.8,234.3,223.5,234.3z M22.1,229.8h199.2V50.4c0-4.2-3.4-7.5-7.5-7.5H29.6c-4.2,0-7.5,3.4-7.5,7.5V229.8z"/>
	<circle id="XMLID_21_" class="st3" cx="44.9" cy="54.2" r="4.9"/>
	<circle id="XMLID_20_" class="st3" cx="60.3" cy="54.2" r="4.9"/>
	<circle id="XMLID_19_" class="st3" cx="75.7" cy="54.2" r="4.9"/>
	<path id="XMLID_18_" class="st0" d="M164,148.8h38.1V94.3C173.8,106.4,164.9,118,164,148.8z"/>
	<polygon id="XMLID_17_" class="st3" points="154.4,148.8 41.2,148.8 41.2,91 185.7,91 	"/>
	<path id="XMLID_16_" class="st2" d="M104.9,173.7H45.5c-1.3,0-2.3-1-2.3-2.3c0-1.3,1-2.3,2.3-2.3h59.4c1.3,0,2.3,1,2.3,2.3
		C107.2,172.7,106.2,173.7,104.9,173.7z"/>
	<path id="XMLID_15_" class="st2" d="M104.9,186.6H45.5c-1.3,0-2.3-1-2.3-2.3c0-1.3,1-2.3,2.3-2.3h59.4c1.3,0,2.3,1,2.3,2.3
		C107.2,185.6,106.2,186.6,104.9,186.6z"/>
	<path id="XMLID_14_" class="st2" d="M104.9,199.6H45.5c-1.3,0-2.3-1-2.3-2.3c0-1.3,1-2.3,2.3-2.3h59.4c1.3,0,2.3,1,2.3,2.3
		C107.2,198.6,106.2,199.6,104.9,199.6z"/>
	<path id="XMLID_13_" class="st2" d="M223.5,70.1H19.8c-1.3,0-2.3-1-2.3-2.3c0-1.3,1-2.3,2.3-2.3h203.7c1.3,0,2.3,1,2.3,2.3
		C225.8,69.1,224.8,70.1,223.5,70.1z"/>
	<path class="st1" d="M261.8,101c-24.6-24.6-64.5-24.6-89,0s-24.6,64.5,0,89c24.6,24.6,64.5,24.6,89,0
		C286.4,165.4,286.4,125.6,261.8,101z M255,183.3c-20.8,20.8-54.6,20.8-75.5,0c-20.8-20.8-20.8-54.6,0-75.5
		c20.8-20.8,54.6-20.8,75.5,0C275.9,128.6,275.9,162.4,255,183.3z"/>
	<path class="st2" d="M217.3,210.8c-17.4,0-33.8-6.8-46.1-19.1c-25.4-25.4-25.4-66.8,0-92.3c12.3-12.3,28.7-19.1,46.1-19.1
		s33.8,6.8,46.1,19.1c25.4,25.4,25.4,66.8,0,92.3C251.1,204,234.7,210.8,217.3,210.8z M217.3,84.8c-16.2,0-31.4,6.3-42.9,17.8
		c-23.7,23.7-23.7,62.2,0,85.8c11.5,11.5,26.7,17.8,42.9,17.8c16.2,0,31.4-6.3,42.9-17.8c23.7-23.7,23.7-62.2,0-85.8
		C248.7,91.1,233.5,84.8,217.3,84.8z"/>
	<path class="st2" d="M217.3,201.2c-14.9,0-28.8-5.8-39.4-16.3c-21.7-21.7-21.7-57,0-78.7c10.5-10.5,24.5-16.3,39.4-16.3
		c14.9,0,28.8,5.8,39.4,16.3c21.7,21.7,21.7,57,0,78.7C246.1,195.4,232.1,201.2,217.3,201.2z M217.3,94.4c-13.6,0-26.5,5.3-36.1,15
		c-19.9,19.9-19.9,52.3,0,72.3c9.6,9.6,22.5,15,36.1,15c13.6,0,26.5-5.3,36.1-15c19.9-19.9,19.9-52.3,0-72.3
		C243.7,99.7,230.9,94.4,217.3,94.4z"/>
	<path id="XMLID_6_" class="st2" d="M103.4,261.7c-0.6,0-1.2-0.2-1.6-0.7c-0.9-0.9-0.9-2.3,0-3.2l69.4-69.4c0.9-0.9,2.3-0.9,3.2,0
		c0.9,0.9,0.9,2.3,0,3.2L105,261C104.5,261.5,104,261.7,103.4,261.7z"/>
	<path id="XMLID_5_" class="st2" d="M175.2,207.6c-0.6,0-1.2-0.2-1.6-0.7l-17.8-17.8c-0.9-0.9-0.9-2.3,0-3.2c0.9-0.9,2.3-0.9,3.2,0
		l17.8,17.8c0.9,0.9,0.9,2.3,0,3.2C176.4,207.4,175.8,207.6,175.2,207.6z"/>
	<path id="XMLID_4_" class="st1" d="M51.2,141.7c-0.6,0-1.2-0.2-1.6-0.7c-0.9-0.9-0.9-2.3,0-3.2l30.6-30.6c0.9-0.9,2.4-0.9,3.2,0
		l30.6,30.6c0.9,0.9,0.9,2.3,0,3.2c-0.9,0.9-2.3,0.9-3.2,0l-29-29l-29,29C52.4,141.5,51.8,141.7,51.2,141.7z"/>
	<path id="XMLID_3_" class="st1" d="M132.2,141.4c-0.6,0-1.2-0.2-1.6-0.7l-21-21l-8.5,8.5c-0.9,0.9-2.3,0.9-3.2,0
		c-0.9-0.9-0.9-2.3,0-3.2l10.1-10.1c0.9-0.9,2.3-0.9,3.2,0l22.6,22.6c0.9,0.9,0.9,2.3,0,3.2C133.4,141.2,132.8,141.4,132.2,141.4z"
		/>
	<path class="st1" d="M138.1,121.8c-5.5,0-9.9-4.5-9.9-9.9s4.5-9.9,9.9-9.9c5.5,0,9.9,4.5,9.9,9.9S143.5,121.8,138.1,121.8z
		 M138.1,106.6c-2.9,0-5.3,2.4-5.3,5.3c0,2.9,2.4,5.3,5.3,5.3c2.9,0,5.3-2.4,5.3-5.3C143.4,109,141,106.6,138.1,106.6z"/>
</g>
</svg>
